<svg width="26" height="26" viewBox="0 0 26 26" fill="none" xmlns="http://www.w3.org/2000/svg">
<path d="M11.4426 1.93628C10.598 1.93628 9.78799 2.27179 9.19079 2.86899C8.59359 3.4662 8.25808 4.27618 8.25808 5.12075V17.8587C8.25808 18.7032 8.59359 19.5132 9.19079 20.1104C9.78799 20.7076 10.598 21.0431 11.4426 21.0431H19.4053C20.2499 21.0431 21.0599 20.7076 21.6571 20.1104C22.2543 19.5132 22.5898 18.7032 22.5898 17.8587V9.10135H22.5866V7.37218C22.5865 6.73919 22.3351 6.13214 21.8876 5.68441L18.8401 2.63527C18.3924 2.18782 17.7853 1.93641 17.1523 1.93628H11.441H11.4426ZM19.4053 19.4509H11.4426C11.0203 19.4509 10.6153 19.2831 10.3167 18.9845C10.0181 18.6859 9.85032 18.2809 9.85032 17.8587V5.12075C9.85032 4.69847 10.0181 4.29348 10.3167 3.99487C10.6153 3.69627 11.0203 3.52852 11.4426 3.52852H16.2193V5.91687C16.2193 6.55031 16.4709 7.15779 16.9188 7.6057C17.3667 8.0536 17.9742 8.30523 18.6076 8.30523H20.996V9.99459H20.9976V17.8587C20.9976 18.2809 20.8298 18.6859 20.5312 18.9845C20.2326 19.2831 19.8276 19.4509 19.4053 19.4509ZM20.6648 6.71299H18.606C18.3949 6.71299 18.1924 6.62912 18.0431 6.47982C17.8938 6.33051 17.8099 6.12802 17.8099 5.91687V3.85811L20.6648 6.71299ZM5.0752 6.71299C5.0752 6.29071 5.24295 5.88571 5.54155 5.58711C5.84015 5.28851 6.24515 5.12075 6.66743 5.12075V17.8587C6.66743 19.1255 7.17069 20.3405 8.0665 21.2363C8.96231 22.1321 10.1773 22.6354 11.4441 22.6354H19.4053C19.4053 23.0577 19.2376 23.4627 18.939 23.7613C18.6404 24.0599 18.2354 24.2276 17.8131 24.2276H11.1098C9.50931 24.2276 7.97439 23.5918 6.84268 22.4601C5.71098 21.3284 5.0752 19.7935 5.0752 18.193V6.71299Z" fill="#A0A0A0"/>
</svg>
