<svg width="26" height="26" viewBox="0 0 26 26" fill="none" xmlns="http://www.w3.org/2000/svg">
<path fill-rule="evenodd" clip-rule="evenodd" d="M8.15833 18.8971C11.7913 18.3664 14.2927 18.412 17.9304 18.9157C18.1939 18.9539 18.4346 19.0861 18.6081 19.288C18.7817 19.4898 18.8764 19.7476 18.8746 20.0138C18.8746 20.2686 18.7871 20.5159 18.6289 20.7091C18.3532 21.0459 18.0708 21.3772 17.7818 21.7027H19.1835C19.2716 21.5976 19.3603 21.4904 19.45 21.3816C19.7648 20.9955 19.9365 20.5125 19.9361 20.0144C19.9361 18.9396 19.1517 18.0135 18.0759 17.8648C14.3521 17.3495 11.7494 17.3001 8.00495 17.8473C6.91798 18.006 6.13672 18.9465 6.13672 20.0287C6.13672 20.509 6.29329 20.984 6.58998 21.3688C6.67755 21.4824 6.76406 21.5939 6.85004 21.7032H8.21777C7.94891 21.3813 7.68667 21.0539 7.43121 20.7213C7.27939 20.5222 7.1975 20.2786 7.19821 20.0282C7.19821 19.4565 7.60901 18.9773 8.15833 18.8971ZM13.0364 13.7415C13.4546 13.7415 13.8687 13.6591 14.2551 13.4991C14.6414 13.339 14.9925 13.1045 15.2882 12.8088C15.5839 12.5131 15.8185 12.162 15.9785 11.7756C16.1385 11.3893 16.2209 10.9752 16.2209 10.557C16.2209 10.1388 16.1385 9.72471 15.9785 9.33836C15.8185 8.952 15.5839 8.60094 15.2882 8.30524C14.9925 8.00953 14.6414 7.77497 14.2551 7.61493C13.8687 7.4549 13.4546 7.37253 13.0364 7.37253C12.1918 7.37253 11.3819 7.70803 10.7847 8.30524C10.1874 8.90244 9.85194 9.71243 9.85194 10.557C9.85194 11.4016 10.1874 12.2116 10.7847 12.8088C11.3819 13.406 12.1918 13.7415 13.0364 13.7415ZM13.0364 14.803C14.1625 14.803 15.2425 14.3556 16.0388 13.5594C16.835 12.7631 17.2824 11.6831 17.2824 10.557C17.2824 9.4309 16.835 8.35092 16.0388 7.55465C15.2425 6.75838 14.1625 6.31104 13.0364 6.31104C11.9103 6.31104 10.8303 6.75838 10.0341 7.55465C9.23779 8.35092 8.79045 9.4309 8.79045 10.557C8.79045 11.6831 9.23779 12.7631 10.0341 13.5594C10.8303 14.3556 11.9103 14.803 13.0364 14.803Z" fill="#A0A0A0"/>
<path fill-rule="evenodd" clip-rule="evenodd" d="M13.0363 22.7643C18.3125 22.7643 22.5897 18.487 22.5897 13.2109C22.5897 7.93472 18.3125 3.65744 13.0363 3.65744C7.76016 3.65744 3.48288 7.93472 3.48288 13.2109C3.48288 18.487 7.76016 22.7643 13.0363 22.7643ZM13.0363 23.8258C18.8989 23.8258 23.6512 19.0735 23.6512 13.2109C23.6512 7.34825 18.8989 2.59595 13.0363 2.59595C7.17369 2.59595 2.42139 7.34825 2.42139 13.2109C2.42139 19.0735 7.17369 23.8258 13.0363 23.8258Z" fill="#A0A0A0"/>
</svg>
