<svg width="26" height="26" viewBox="0 0 26 26" fill="none" xmlns="http://www.w3.org/2000/svg">
<path d="M10.4206 14.0791H8.0779C7.82714 14.7872 7.33413 15.3839 6.68599 15.7636C6.03786 16.1434 5.27633 16.2818 4.53601 16.1544C3.79568 16.027 3.12423 15.642 2.64033 15.0674C2.15643 14.4928 1.89123 13.7657 1.8916 13.0145C1.89198 12.2633 2.1579 11.5364 2.64238 10.9623C3.12686 10.3882 3.7987 10.0039 4.53915 9.8772C5.27959 9.75054 6.04098 9.88972 6.68874 10.2701C7.33649 10.6506 7.82891 11.2477 8.07896 11.9561H10.4206L14.0976 5.58714H17.4625C17.7126 4.87877 18.205 4.2816 18.8528 3.90118C19.5005 3.52076 20.2619 3.38159 21.0024 3.50825C21.7428 3.63491 22.4146 4.01925 22.8991 4.59335C23.3836 5.16745 23.6495 5.89433 23.6499 6.64554C23.6503 7.39674 23.3851 8.12389 22.9012 8.69848C22.4173 9.27306 21.7458 9.65807 21.0055 9.78547C20.2652 9.91287 19.5037 9.77446 18.8555 9.39468C18.2074 9.01491 17.7144 8.41824 17.4636 7.71012H15.3226L12.2591 13.0165L15.3236 18.325H17.4636C17.714 17.6168 18.2067 17.0199 18.8547 16.6398C19.5026 16.2597 20.2641 16.1209 21.0045 16.2479C21.7448 16.3749 22.4165 16.7596 22.9007 17.334C23.3849 17.9083 23.6504 18.6353 23.6504 19.3865C23.6504 20.1377 23.3849 20.8648 22.9007 21.4391C22.4165 22.0134 21.7448 22.3981 21.0045 22.5251C20.2641 22.6522 19.5026 22.5134 18.8547 22.1333C18.2067 21.7532 17.714 21.1563 17.4636 20.448H14.0976L10.4206 14.0791ZM20.4666 18.325C20.185 18.325 19.915 18.4369 19.716 18.6359C19.5169 18.835 19.4051 19.105 19.4051 19.3865C19.4051 19.6681 19.5169 19.9381 19.716 20.1371C19.915 20.3362 20.185 20.448 20.4666 20.448C20.7481 20.448 21.0181 20.3362 21.2172 20.1371C21.4162 19.9381 21.5281 19.6681 21.5281 19.3865C21.5281 19.105 21.4162 18.835 21.2172 18.6359C21.0181 18.4369 20.7481 18.325 20.4666 18.325ZM5.07494 11.9561C4.79341 11.9561 4.52342 12.0679 4.32435 12.267C4.12528 12.4661 4.01345 12.7361 4.01345 13.0176C4.01345 13.2991 4.12528 13.5691 4.32435 13.7682C4.52342 13.9672 4.79341 14.0791 5.07494 14.0791C5.35646 14.0791 5.62646 13.9672 5.82553 13.7682C6.02459 13.5691 6.13643 13.2991 6.13643 13.0176C6.13643 12.7361 6.02459 12.4661 5.82553 12.267C5.62646 12.0679 5.35646 11.9561 5.07494 11.9561ZM20.4666 5.58714C20.185 5.58714 19.915 5.69897 19.716 5.89804C19.5169 6.09711 19.4051 6.3671 19.4051 6.64863C19.4051 6.93016 19.5169 7.20015 19.716 7.39922C19.915 7.59829 20.185 7.71012 20.4666 7.71012C20.7481 7.71012 21.0181 7.59829 21.2172 7.39922C21.4162 7.20015 21.5281 6.93016 21.5281 6.64863C21.5281 6.3671 21.4162 6.09711 21.2172 5.89804C21.0181 5.69897 20.7481 5.58714 20.4666 5.58714Z" fill="#A0A0A0"/>
</svg>
