<svg width="26" height="26" viewBox="0 0 26 26" fill="none" xmlns="http://www.w3.org/2000/svg">
<path d="M5.97317 18.9889L2.86353 22.0969C2.71851 22.2471 2.63826 22.4482 2.64008 22.6569C2.64189 22.8657 2.72562 23.0653 2.87323 23.213C3.02083 23.3606 3.22051 23.4443 3.42925 23.4461C3.63799 23.4479 3.83909 23.3677 3.98924 23.2227L7.09888 20.113C9.13096 21.854 11.7584 22.7403 14.4298 22.5859C17.1013 22.4315 19.6091 21.2483 21.427 19.2848C23.245 17.3212 24.2317 14.7298 24.1802 12.0544C24.1287 9.379 23.043 6.82752 21.1508 4.93537C19.2587 3.04321 16.7072 1.95747 14.0318 1.90597C11.3564 1.85447 8.76497 2.84122 6.8014 4.65915C4.83783 6.47709 3.65471 8.98489 3.50028 11.6563C3.34586 14.3278 4.23215 16.9552 5.97317 18.9873V18.9889ZM13.8325 21.011C11.5099 21.011 9.28242 20.0884 7.6401 18.4461C5.99779 16.8038 5.07515 14.5763 5.07515 12.2537C5.07515 9.93115 5.99779 7.70369 7.6401 6.06138C9.28242 4.41906 11.5099 3.49642 13.8325 3.49642C16.155 3.49642 18.3825 4.41906 20.0248 6.06138C21.6671 7.70369 22.5898 9.93115 22.5898 12.2537C22.5898 14.5763 21.6671 16.8038 20.0248 18.4461C18.3825 20.0884 16.155 21.011 13.8325 21.011Z" fill="#A0A0A0"/>
</svg>
