<svg width="204" height="122" viewBox="0 0 204 122" fill="none" xmlns="http://www.w3.org/2000/svg">
<path fill-rule="evenodd" clip-rule="evenodd" d="M22.7416 5.78307L133.292 5.75751L129.382 24.0204L200.147 24.004L181.254 115.644L91.5754 115.665L96.4614 91.858L3.84735 91.8794L22.7416 5.78307ZM107.991 24.5519L100.242 24.5519L96.9412 43.431C94.7887 39.6119 90.9141 37.6664 85.3176 37.6664C81.6583 37.6664 78.3578 38.6752 75.3443 40.5487C72.3307 42.4222 69.963 45.0883 68.241 48.4029C66.519 51.7176 65.658 55.4645 65.658 59.4998C65.658 62.5262 66.232 65.2643 67.5235 67.7143C68.815 70.1642 70.6087 72.0377 72.9048 73.4068C75.2008 74.7759 77.7838 75.4244 80.7973 75.4244C83.2368 75.4244 85.4611 74.9921 87.4701 74.0553C89.4074 73.1186 91.0576 71.8216 92.4926 70.1643L92.5644 74.9921L99.0937 74.9921L107.991 24.5519ZM89.1204 66.8496C87.1831 68.2187 84.9588 68.8672 82.4476 68.8672C79.7211 68.8672 77.4968 68.0025 75.9183 66.2011C74.3398 64.3997 73.5505 61.8056 73.5505 58.491C73.5505 56.1851 74.0528 53.8793 75.0573 51.7176C76.0618 49.5558 77.5685 47.7544 79.5058 46.3853C81.3713 45.0162 83.5956 44.2956 86.1786 44.2956C88.9051 44.2956 91.0576 45.2324 92.6361 46.9618C94.2147 48.7632 95.0757 51.2852 95.0757 54.5998C95.0757 56.9777 94.5016 59.2836 93.4971 61.4453C92.4926 63.6791 90.9859 65.4805 89.1204 66.8496ZM53.86 39.5399C51.4923 38.3149 48.7658 37.6664 45.6087 37.6664C41.4472 37.6664 37.7879 38.6752 34.7027 40.5487C31.6174 42.4222 29.2496 45.0162 27.5994 48.2588C25.9491 51.5734 25.1598 55.1763 25.1598 59.1395C25.1598 62.31 25.8056 65.1202 27.1689 67.5702C28.5321 70.0201 30.4694 71.9657 33.0524 73.3348C35.6354 74.7759 38.5772 75.4244 42.0212 75.4244C46.398 75.4244 50.129 74.3436 53.286 72.0377C56.3713 69.804 58.4521 66.6334 59.5283 62.5982L51.7793 62.5982C50.7748 64.7599 49.555 66.4173 48.12 67.4981C46.685 68.579 44.676 69.0834 42.1647 69.0834C39.2947 69.0834 37.0704 68.2187 35.4202 66.3452C33.6982 64.4717 32.9089 62.31 32.9089 59.7159C32.9089 59.2115 32.9089 58.7792 32.9806 58.3468L60.5328 58.3468C60.9633 56.6175 61.1786 54.6719 61.1786 52.5102C61.1786 49.6279 60.5328 47.0338 59.3131 44.8C58.0216 42.5663 56.2278 40.8369 53.86 39.5399ZM53.0708 52.5102L34.2004 52.5102C34.8462 49.9882 36.1377 47.8985 38.1467 46.3133C40.0839 44.728 42.38 43.9354 45.0347 43.9354C47.4742 43.9354 49.4833 44.6559 50.9183 45.953C52.3533 47.25 53.1425 49.1235 53.1425 51.5014C53.1425 51.7546 53.1179 51.9832 53.0975 52.1725C53.0831 52.3064 53.0708 52.4206 53.0708 52.5102ZM135.609 73.047L120.922 41.3916L137.148 41.0393L146.497 61.4634L163.261 40.7725L179.209 40.6095L153.329 72.866L168.871 106.005L152.457 106.173L142.44 84.3563L124.478 106.459L108.624 106.621L135.609 73.047Z" fill="#4D4D4D"/>
</svg>
