<svg width="335" height="127" viewBox="0 0 335 127" fill="none" xmlns="http://www.w3.org/2000/svg">
<g clip-path="url(#clip0_207_386)">
<path d="M52.0594 30.0978L26.1177 15.1223L0.183105 30.0978L0.183105 15.1223L26.1216 0.14624L52.0633 15.1223V30.0978H52.0594Z" fill="#5A5A5A"/>
<path d="M0.183105 42.6736H13.7706V75.686C13.7706 84.2156 20.1401 88.3728 26.1216 88.3728C32.1545 88.3728 38.4758 84.1048 38.4758 75.5719V42.6743H52.0633V76.4726C52.0633 84.3298 49.5927 90.3927 44.6529 94.5499C39.7091 98.7045 33.5353 100.727 26.0068 100.727C18.4855 100.727 12.3084 98.7078 7.48266 94.5506C2.65303 90.3953 0.183105 84.558 0.183105 76.8078L0.183105 42.6736ZM169.533 83.7023C165.42 87.3652 160.734 89.1594 155.391 89.1594C145.644 89.1594 139.108 83.6065 138.37 75.0064H182.271C182.271 75.0064 182.566 72.2306 182.566 69.6237C182.566 61.5376 179.982 54.7989 174.702 49.2975C169.54 43.7961 162.806 41.1005 154.605 41.1005C145.961 41.1005 138.883 43.7961 133.267 49.2975C127.766 54.7989 124.96 61.9843 124.96 70.9712V71.4147C124.96 80.2867 127.766 87.3613 133.267 92.6409C138.769 97.9173 146.069 100.613 154.941 100.613C165.257 100.613 173.465 96.5437 179.624 89.5285L169.533 83.7023ZM143.709 56.1464C146.736 53.7873 150.448 52.554 154.601 52.554C158.53 52.554 161.786 53.7873 164.596 56.2612C167.277 58.5133 168.724 61.2793 168.85 64.4582H138.717C139.152 61.1717 140.814 58.403 143.713 56.1503L143.709 56.147V56.1464ZM306.309 108.241C300.797 121.256 295.029 125.683 286.186 125.683H280.057V113.639H285.012C288.054 113.639 290.883 112.494 293.578 106.277L296.274 100.051L273.027 42.6736H286.84L303.348 83.9978L320.306 42.6736H334.116L306.313 108.241H306.309V108.241ZM104.958 21.0039V47.7987C100.506 43.8111 93.5792 41.4371 86.881 41.4371C78.9057 41.4371 72.171 44.2429 66.6696 49.966C61.2791 55.5816 58.5835 62.542 58.5835 70.964C58.5835 79.3899 61.2791 86.3497 66.6696 92.0761C72.171 97.6916 78.9096 100.502 86.8816 100.502C96.0752 100.502 101.886 96.8875 104.958 94.0555V99.2654H118.436V21.0072H104.958V21.0039ZM100.915 83.3221C97.6588 86.5786 93.5055 88.2659 88.6759 88.2659C83.8462 88.2659 79.918 86.5786 76.6608 83.3221C73.5224 80.0656 71.946 75.9117 71.946 70.9712C71.946 66.0274 73.5191 61.8735 76.6615 58.617C79.918 55.3605 83.8462 53.6765 88.6752 53.6765C93.5055 53.6765 97.6588 55.3605 100.915 58.617C104.283 61.8735 105.974 66.0274 105.974 70.9712C105.974 75.9117 104.283 80.0656 100.915 83.3221ZM252.077 41.5512C241.842 41.5512 236.522 45.7971 232.877 49.8884C231.419 47.108 227.313 41.5512 217.72 41.5512C209.612 41.5512 204.835 45.6497 202.449 48.5664V42.6808H189.09V99.2726H202.449V66.707C202.449 59.0709 207.168 53.5695 213.452 53.5695C219.859 53.5695 223.561 58.3991 223.561 66.1454V99.2687H236.924V66.7031C236.924 58.9568 241.524 53.5662 248.149 53.5662C254.551 53.5662 258.254 58.3952 258.254 66.1383V99.2654H271.731V64.2325C271.731 49.4782 263.8 41.5545 252.077 41.5545V41.5505V41.5512Z" fill="black"/>
</g>
<defs>
<clipPath id="clip0_207_386">
<rect width="333.932" height="125.877" fill="white" transform="translate(0.183105 0.14624)"/>
</clipPath>
</defs>
</svg>
