<svg width="335" height="49" viewBox="0 0 335 49" fill="none" xmlns="http://www.w3.org/2000/svg">
<g clip-path="url(#clip0_207_385)">
<path d="M109.836 1.78569V27.8859C109.836 33.6528 113.051 37.058 118.63 37.058C124.871 37.058 128.458 33.2745 128.458 25.9925V1.78569H140.091V46.7016H128.467V41.4982C125.727 45.7533 121.281 47.8345 115.136 47.8345C104.734 47.8377 98.2108 40.2727 98.2108 29.3025V1.78569H109.836ZM234.755 0.935857C247.994 0.961946 257.334 11.5682 257.302 24.0613C257.305 25.2967 257.208 26.5303 257.013 27.7502L222.785 27.6863C224.097 33.0775 228.534 36.9627 235.249 36.9771C239.314 36.9771 243.667 35.4796 246.32 32.0803L254.252 38.4393C250.174 44.201 242.979 47.5918 235.324 47.5768C221.81 47.5312 211.427 37.3932 211.45 24.2492C211.476 11.6719 220.478 0.909769 234.755 0.935857ZM308.56 0.935857C315.651 0.935857 319.718 3.10968 322.459 7.27275L323.548 1.77982H334.183V46.7016H323.548L322.175 42.0761C319.056 45.4813 315.177 47.5684 308.56 47.5684C298.347 47.554 286.715 38.5698 286.715 24.5759C286.715 10.4868 298.156 0.935857 308.56 0.935857ZM70.257 0.935857C83.5888 0.935857 94.1801 11.3426 94.1801 24.1976C94.1801 36.9627 83.5888 47.554 70.257 47.554C57.0177 47.554 46.4291 36.951 46.4291 24.1976C46.4291 11.336 57.0177 0.935857 70.257 0.935857ZM189.86 0.649536C197.358 0.649536 204.001 3.97125 207.608 10.1399L197.364 15.5598C195.846 12.5217 192.999 10.8136 189.391 10.8136C185.882 10.8136 184.17 12.0476 184.17 14.1347C184.17 21.159 208.658 16.6992 208.658 33.5028C208.658 42.2359 201.541 47.5481 190.057 47.5481C180.28 47.5397 173.446 44.3132 170.032 36.9106L180.37 31.4992C182.078 35.2024 185.494 37.3847 190.336 37.3847C194.797 37.3847 196.505 35.9629 196.505 33.9678C196.505 26.7413 172.018 31.1209 172.018 14.6003C172.018 5.48895 179.991 0.649536 189.86 0.649536ZM24.0784 0.840634C28.0591 0.812781 31.9843 1.77582 35.5001 3.64296C39.0159 5.51011 42.0118 8.22269 44.2181 11.5363L34.2914 17.2946C33.1428 15.6532 31.614 14.3141 29.8356 13.3919C28.0571 12.4697 26.0818 11.9916 24.0784 11.9987C17.2706 11.9987 11.6916 17.6729 11.6916 24.1976C11.6916 30.7217 17.2706 36.396 24.0784 36.396C26.1762 36.4097 28.2424 35.8855 30.0799 34.8734C31.9174 33.8613 33.4648 32.3951 34.5744 30.6148L44.4033 36.4768C42.224 39.8875 39.2168 42.691 35.6618 44.626C32.1069 46.5609 28.1199 47.5644 24.0725 47.5429C10.8391 47.554 0.250488 36.951 0.250488 24.1976C0.250488 11.2447 10.8391 0.840634 24.0784 0.840634ZM169.963 0.626709L167.817 11.4815C167.423 11.4384 167.025 11.4163 166.627 11.4149C160.389 11.4293 156.802 15.2186 156.819 22.498L156.882 46.6983L145.253 46.7244L145.155 1.81178L156.784 1.78569V6.98904C159.493 2.7627 163.892 0.675625 169.963 0.626709V0.626709ZM286.822 0.658667L284.666 11.5017C284.27 11.46 283.873 11.4378 283.475 11.4352C277.242 11.4352 273.646 15.216 273.646 22.498V46.7016H262.017V1.78308L273.646 1.78308V6.98577C276.366 2.76792 280.76 0.689974 286.822 0.658015V0.658667ZM70.257 12.0939C63.4498 12.0939 57.8708 17.7681 57.8708 24.1976C57.8708 30.7217 63.4498 36.396 70.257 36.396C77.1717 36.396 82.739 30.7217 82.739 24.1976C82.739 17.7688 77.16 12.0939 70.257 12.0939ZM310.549 12.0985C308.916 12.1045 307.301 12.4322 305.795 13.0627C304.289 13.6931 302.922 14.6141 301.773 15.773C300.623 16.9315 299.712 18.3052 299.093 19.8156C298.474 21.326 298.159 22.9436 298.165 24.5759C298.165 30.8176 303.744 36.396 310.555 36.396C317.449 36.396 323.025 30.8169 323.025 24.4807C323.012 21.1843 321.69 18.028 319.351 15.706C317.011 13.384 313.845 12.0863 310.548 12.0985H310.549ZM234.642 11.5278C229.251 11.5278 224.898 14.7249 223.186 19.5435L245.595 19.5839C244.941 15.0452 240.221 11.5356 234.642 11.5278Z" fill="#4D4D4D"/>
</g>
<defs>
<clipPath id="clip0_207_385">
<rect width="333.932" height="47.6115" fill="white" transform="translate(0.250488 0.626709)"/>
</clipPath>
</defs>
</svg>
